<svg width="28" height="28" viewBox="0 0 28 28" fill="none" xmlns="http://www.w3.org/2000/svg">
<path d="M9.8 4.19922H18.2C19.487 4.19922 20.7613 4.4527 21.9503 4.9452C23.1393 5.4377 24.2196 6.15956 25.1296 7.06957C26.0397 7.97959 26.7615 9.05993 27.254 10.2489C27.7465 11.4379 28 12.7123 28 13.9992C28 15.2862 27.7465 16.5605 27.254 17.7495C26.7615 18.9385 26.0397 20.0188 25.1296 20.9289C24.2196 21.8389 23.1393 22.5607 21.9503 23.0532C20.7613 23.5457 19.487 23.7992 18.2 23.7992H9.8C8.51305 23.7992 7.23869 23.5457 6.0497 23.0532C4.86071 22.5607 3.78037 21.8389 2.87035 20.9289C1.96034 20.0188 1.23848 18.9385 0.745979 17.7495C0.253483 16.5605 0 15.2862 0 13.9992C0 12.7123 0.253483 11.4379 0.745979 10.2489C1.23848 9.05993 1.96034 7.97959 2.87035 7.06957C3.78037 6.15956 4.86071 5.4377 6.0497 4.9452C7.23869 4.4527 8.51305 4.19922 9.8 4.19922ZM9.8 20.9992C11.6567 20.999 13.4373 20.2613 14.75 18.9483C16.0628 17.6352 16.8002 15.8545 16.8 13.9978C16.7998 12.1411 16.0621 10.3605 14.749 9.04778C13.436 7.73503 11.6553 6.99763 9.7986 6.99782C8.87925 6.99791 7.96893 7.17908 7.1196 7.53098C6.27027 7.88289 5.49857 8.39863 4.84856 9.04877C4.19855 9.69891 3.68296 10.4707 3.33123 11.3201C2.9795 12.1695 2.79851 13.0799 2.7986 13.9992C2.79869 14.9186 2.97986 15.8289 3.33176 16.6782C3.68367 17.5275 4.19941 18.2992 4.84955 18.9493C5.49969 19.5993 6.2715 20.1149 7.1209 20.4666C7.97029 20.8183 8.88066 20.9993 9.8 20.9992Z" fill="#60677A"/>
</svg>
