<svg width="28" height="28" viewBox="0 0 28 28" fill="none" xmlns="http://www.w3.org/2000/svg">
<path d="M18.2 4.19922H9.8C8.51305 4.19922 7.23869 4.4527 6.0497 4.9452C4.86071 5.4377 3.78037 6.15956 2.87035 7.06957C1.96034 7.97959 1.23848 9.05993 0.745981 10.2489C0.253484 11.4379 0 12.7123 0 13.9992C0 15.2862 0.253484 16.5605 0.745981 17.7495C1.23848 18.9385 1.96034 20.0188 2.87035 20.9289C3.78037 21.8389 4.86071 22.5607 6.0497 23.0532C7.23869 23.5457 8.51305 23.7992 9.8 23.7992H18.2C19.487 23.7992 20.7613 23.5457 21.9503 23.0532C23.1393 22.5607 24.2196 21.8389 25.1296 20.9289C26.0397 20.0188 26.7615 18.9385 27.254 17.7495C27.7465 16.5605 28 15.2862 28 13.9992C28 12.7123 27.7465 11.4379 27.254 10.2489C26.7615 9.05993 26.0397 7.97959 25.1296 7.06957C24.2196 6.15956 23.1393 5.4377 21.9503 4.9452C20.7613 4.4527 19.487 4.19922 18.2 4.19922ZM18.2 20.9992C16.3433 20.999 14.5627 20.2613 13.25 18.9483C11.9372 17.6352 11.1998 15.8545 11.2 13.9978C11.2002 12.1411 11.9379 10.3605 13.251 9.04778C14.564 7.73503 16.3447 6.99763 18.2014 6.99782C19.1207 6.99791 20.0311 7.17908 20.8804 7.53098C21.7297 7.88289 22.5014 8.39863 23.1514 9.04877C23.8014 9.69891 24.317 10.4707 24.6688 11.3201C25.0205 12.1695 25.2015 13.0799 25.2014 13.9992C25.2013 14.9186 25.0201 15.8289 24.6682 16.6782C24.3163 17.5275 23.8006 18.2992 23.1504 18.9493C22.5003 19.5993 21.7285 20.1149 20.8791 20.4666C20.0297 20.8183 19.1193 20.9993 18.2 20.9992Z" fill="#8941FF"/>
</svg>
