<svg width="24" height="24" viewBox="0 0 25 24" fill="none" xmlns="http://www.w3.org/2000/svg">
<path d="M13.9944 4.74372H14.4944V4.72249L14.4926 4.70132L13.9944 4.74372ZM13.9944 4.74369L14.4926 4.70129L14.4919 4.69393L13.9944 4.74369ZM13.9944 4.74374H13.4944V4.76868L13.4969 4.79349L13.9944 4.74374ZM14.1149 5.52594L13.6526 5.7164L13.6526 5.7164L14.1149 5.52594ZM15.4239 6.06816L15.2317 5.60658L15.2317 5.60658L15.4239 6.06816ZM16.0622 5.60028L16.3789 5.98726V5.98726L16.0622 5.60028ZM16.4165 5.33586L16.6505 5.77769L16.6505 5.77769L16.4165 5.33586ZM17.4383 5.38682L17.7151 4.97047L17.7151 4.97047L17.4383 5.38682ZM17.7644 5.68517L18.118 5.33162V5.33162L17.7644 5.68517ZM18.515 6.43571L18.1614 6.78926L18.1671 6.79496L18.173 6.80048L18.515 6.43571ZM18.515 6.43572L18.8685 6.08217L18.8628 6.07646L18.8569 6.07095L18.515 6.43572ZM18.8133 6.76183L19.2296 6.48496L19.2296 6.48496L18.8133 6.76183ZM18.8643 7.78368L18.4224 7.54962V7.54962L18.8643 7.78368ZM18.5999 8.13786L18.2129 7.82122L18.2094 7.82551L18.5999 8.13786ZM18.5999 8.13787L18.9869 8.45451L18.9903 8.45022L18.5999 8.13787ZM18.132 8.77613L18.5936 8.96836V8.96836L18.132 8.77613ZM18.6742 10.0852L18.4838 10.5475L18.6742 10.0852ZM19.4564 10.2057L19.4067 10.7032L19.4564 10.2057ZM19.8939 10.2692L20.0408 9.79127L19.8939 10.2692ZM20.5804 11.0278L21.0705 10.9291V10.9291L20.5804 11.0278ZM20.5804 12.9723L20.0902 12.8737V12.8737L20.5804 12.9723ZM19.8938 13.7309L20.0407 14.2089L20.0407 14.2089L19.8938 13.7309ZM19.4565 13.7944L19.5062 14.2919H19.5062L19.4565 13.7944ZM19.4564 13.7944L19.4067 13.2969L19.4067 13.2969L19.4564 13.7944ZM18.6746 13.9149L18.865 14.3772L18.865 14.3772L18.6746 13.9149ZM18.1323 15.2241L18.5938 15.0318L18.5938 15.0318L18.1323 15.2241ZM18.6 15.8621L18.213 16.1787L18.213 16.1787L18.6 15.8621ZM18.8643 16.2161L19.3061 15.982L19.3061 15.982L18.8643 16.2161ZM18.8133 17.2381L19.2296 17.515L19.2296 17.515L18.8133 17.2381ZM18.5151 17.5641L18.1615 17.2105L18.1615 17.2105L18.5151 17.5641ZM17.7645 18.3147L18.118 18.6682L17.7645 18.3147ZM17.7645 18.3147L18.118 18.6682L18.118 18.6682L17.7645 18.3147ZM17.4383 18.613L17.7152 19.0294L17.7152 19.0294L17.4383 18.613ZM16.4165 18.664L16.6505 18.2222H16.6505L16.4165 18.664ZM16.0623 18.3996L16.3789 18.0126L16.36 17.9971L16.3396 17.9836L16.0623 18.3996ZM16.0623 18.3996L15.7457 18.7865L15.7646 18.802L15.7849 18.8156L16.0623 18.3996ZM15.424 17.9317L15.2318 18.3933L15.424 17.9317ZM14.1149 18.4739L13.6526 18.2834V18.2834L14.1149 18.4739ZM13.9944 19.2563L14.4919 19.306L13.9944 19.2563ZM13.9309 19.694L13.4529 19.5471L13.4529 19.5471L13.9309 19.694ZM13.1724 20.3804L13.2711 20.8706H13.2711L13.1724 20.3804ZM11.2277 20.3804L11.3264 19.8903H11.3264L11.2277 20.3804ZM10.4692 19.6939L10.9471 19.547L10.9471 19.547L10.4692 19.6939ZM10.4057 19.2565L9.90815 19.3062L10.4057 19.2565ZM10.2851 18.4743L9.82285 18.6647L9.82285 18.6647L10.2851 18.4743ZM8.97613 17.9321L9.16834 18.3936H9.16834L8.97613 17.9321ZM8.33778 18.4L8.6544 18.7869L8.6544 18.7869L8.33778 18.4ZM7.98352 18.6644L8.21757 19.1063H8.21757L7.98352 18.6644ZM6.96172 18.6135L6.68487 19.0298L6.68487 19.0298L6.96172 18.6135ZM6.63554 18.3151L6.9891 17.9615L6.63554 18.3151ZM5.88507 17.5646L5.53152 17.9182H5.53152L5.88507 17.5646ZM5.58667 17.2384L5.1703 17.5152H5.1703L5.58667 17.2384ZM5.5357 16.2166L5.97755 16.4507L5.97755 16.4507L5.5357 16.2166ZM5.80018 15.8623L5.42389 15.5331L5.41844 15.5393L5.4132 15.5457L5.80018 15.8623ZM5.80019 15.8623L6.17648 16.1916L6.18193 16.1853L6.18717 16.1789L5.80019 15.8623ZM6.26812 15.2239L5.80653 15.0317L5.80653 15.0317L6.26812 15.2239ZM5.72591 13.9149L5.53543 14.3772L5.53543 14.3772L5.72591 13.9149ZM4.94364 13.7944L4.89389 14.2919L4.89389 14.2919L4.94364 13.7944ZM4.50616 13.7309L4.35922 14.2088L4.35923 14.2088L4.50616 13.7309ZM3.81967 12.9724L3.3295 13.071L3.81967 12.9724ZM3.80002 12.5307H3.30002H3.80002ZM3.80002 11.4695H4.30002H3.80002ZM3.81969 11.0277L3.32952 10.929L3.81969 11.0277ZM4.5061 10.2692L4.65306 10.7471L4.65306 10.7471L4.5061 10.2692ZM4.94372 10.2057L4.99347 10.7032L4.94372 10.2057ZM5.72623 10.0851L5.53571 9.62283H5.5357L5.72623 10.0851ZM6.26838 8.77623L5.80678 8.96839L5.80678 8.96839L6.26838 8.77623ZM5.80029 8.13761L5.40029 8.43761L5.40662 8.44605L5.41331 8.45423L5.80029 8.13761ZM5.80028 8.1376L6.20028 7.8376L6.19395 7.82916L6.18726 7.82099L5.80028 8.1376ZM5.5357 7.78315L5.09384 8.01716L5.5357 7.78315ZM5.58666 6.76153L5.17027 6.48472L5.17027 6.48472L5.58666 6.76153ZM6.96176 5.3864L7.23861 5.80276H7.23861L6.96176 5.3864ZM7.98355 5.33543L8.2176 4.8936L8.2176 4.8936L7.98355 5.33543ZM8.33787 5.59994L8.65449 5.21296V5.21296L8.33787 5.59994ZM8.97604 6.06775L8.78377 6.5293V6.5293L8.97604 6.06775ZM10.2852 5.52546L10.7476 5.71587L10.2852 5.52546ZM10.4057 4.74359L9.91248 4.66139L9.90979 4.67755L9.90816 4.69384L10.4057 4.74359ZM10.4057 4.74358L10.8989 4.82578L10.9016 4.80963L10.9032 4.79334L10.4057 4.74358ZM10.4691 4.30633L9.99119 4.15945L9.99119 4.15946L10.4691 4.30633ZM11.2278 3.61973L11.3264 4.10992V4.10992L11.2278 3.61973ZM13.1723 3.61975L13.0737 4.10992L13.0737 4.10992L13.1723 3.61975ZM13.9309 4.30624L14.4088 4.15931V4.15931L13.9309 4.30624ZM14.4926 4.70132L14.4926 4.70129L13.4962 4.78609L13.4962 4.78612L14.4926 4.70132ZM14.4944 4.74374V4.74372H13.4944V4.74374H14.4944ZM14.5772 5.33547C14.5739 5.32736 14.5613 5.2902 14.5449 5.17518C14.5289 5.06327 14.5139 4.91392 14.4919 4.69398L13.4969 4.79349C13.518 5.00465 13.5353 5.17863 13.5549 5.31615C13.574 5.45057 13.6001 5.58896 13.6526 5.7164L14.5772 5.33547ZM15.2317 5.60658C14.9761 5.71302 14.6827 5.59148 14.5772 5.33547L13.6526 5.7164C13.969 6.48442 14.8493 6.84906 15.6162 6.52973L15.2317 5.60658ZM15.7456 5.2133C15.5746 5.35326 15.4583 5.44823 15.3679 5.5161C15.275 5.58585 15.2398 5.60321 15.2317 5.60658L15.6161 6.52973C15.7434 6.47674 15.8597 6.39734 15.9683 6.31582C16.0794 6.23243 16.2146 6.12164 16.3789 5.98726L15.7456 5.2133ZM16.1824 4.89402C16.0394 4.96977 15.9049 5.08297 15.7456 5.2133L16.3789 5.98726C16.5745 5.8272 16.6174 5.79521 16.6505 5.77769L16.1824 4.89402ZM17.7151 4.97047C17.2569 4.66577 16.6687 4.63643 16.1824 4.89402L16.6505 5.77769C16.8126 5.69183 17.0087 5.70161 17.1614 5.80317L17.7151 4.97047ZM18.118 5.33162C17.9724 5.18608 17.8499 5.06007 17.7151 4.97047L17.1614 5.80317C17.1926 5.82389 17.2322 5.86001 17.4109 6.03873L18.118 5.33162ZM18.8685 6.08215L18.118 5.33162L17.4109 6.03873L18.1614 6.78926L18.8685 6.08215ZM18.8569 6.07095L18.8569 6.07094L18.173 6.80048L18.173 6.80049L18.8569 6.07095ZM19.2296 6.48496C19.1401 6.35024 19.0141 6.22769 18.8685 6.08217L18.1614 6.78927C18.3401 6.96797 18.3762 7.00754 18.397 7.0387L19.2296 6.48496ZM19.3061 8.01775C19.5637 7.53148 19.5344 6.94319 19.2296 6.48496L18.3969 7.03869C18.4985 7.19144 18.5083 7.38753 18.4224 7.54962L19.3061 8.01775ZM18.9868 8.45448C19.1172 8.2952 19.2304 8.16072 19.3061 8.01775L18.4224 7.54962C18.4049 7.58268 18.3729 7.62564 18.2129 7.82124L18.9868 8.45448ZM18.9903 8.45022L18.9903 8.45021L18.2094 7.82551L18.2094 7.82552L18.9903 8.45022ZM18.5936 8.96836C18.597 8.96026 18.6143 8.92507 18.6841 8.83217C18.7519 8.74178 18.8469 8.62555 18.9868 8.45449L18.2129 7.82125C18.0785 7.98549 17.9677 8.12072 17.8843 8.2318C17.8028 8.34038 17.7234 8.45667 17.6704 8.58391L18.5936 8.96836ZM18.8647 9.62289C18.6087 9.51742 18.4871 9.22397 18.5936 8.96836L17.6704 8.58391C17.3511 9.35074 17.7157 10.2311 18.4838 10.5475L18.8647 9.62289ZM19.5062 9.70818C19.2862 9.68619 19.1369 9.67115 19.025 9.65521C18.91 9.63884 18.8728 9.62623 18.8647 9.62289L18.4838 10.5475C18.6112 10.6 18.7496 10.6261 18.884 10.6452C19.0215 10.6648 19.1955 10.6821 19.4067 10.7032L19.5062 9.70818ZM20.0408 9.79127C19.8861 9.74372 19.711 9.72866 19.5062 9.70818L19.4067 10.7032C19.6582 10.7284 19.7112 10.7361 19.7469 10.7471L20.0408 9.79127ZM21.0705 10.9291C20.962 10.3897 20.5668 9.95296 20.0408 9.79127L19.7469 10.7471C19.9223 10.801 20.054 10.9466 20.0902 11.1264L21.0705 10.9291ZM21.1 11.4694C21.1 11.2635 21.1025 11.0878 21.0705 10.9291L20.0902 11.1264C20.0976 11.1631 20.1 11.2166 20.1 11.4694H21.1ZM21.1 12.5308V11.4694H20.1V12.5308H21.1ZM21.0706 13.0709C21.1025 12.9123 21.1 12.7366 21.1 12.5308H20.1C20.1 12.7835 20.0976 12.837 20.0902 12.8737L21.0706 13.0709ZM20.0407 14.2089C20.5667 14.0472 20.962 13.6104 21.0706 13.0709L20.0902 12.8737C20.054 13.0535 19.9223 13.1991 19.7469 13.253L20.0407 14.2089ZM19.5062 14.2919C19.711 14.2715 19.8861 14.2564 20.0407 14.2089L19.7469 13.253C19.7112 13.264 19.6582 13.2717 19.4067 13.2969L19.5062 14.2919ZM19.5062 14.2919L19.5062 14.2919L19.4067 13.2969L19.4067 13.2969L19.5062 14.2919ZM18.865 14.3772C18.8731 14.3738 18.9102 14.3612 19.0252 14.3449C19.1371 14.329 19.2864 14.3139 19.5062 14.2919L19.4067 13.2969C19.1956 13.318 19.0217 13.3353 18.8843 13.3549C18.7499 13.374 18.6116 13.4001 18.4842 13.4525L18.865 14.3772ZM18.5938 15.0318C18.4873 14.7761 18.6089 14.4826 18.865 14.3772L18.4842 13.4525C17.716 13.7689 17.3512 14.6494 17.6707 15.4164L18.5938 15.0318ZM18.9869 15.5454C18.847 15.3745 18.7521 15.2583 18.6843 15.1679C18.6146 15.0751 18.5972 15.0399 18.5938 15.0318L17.6707 15.4164C17.7237 15.5435 17.8031 15.6598 17.8846 15.7683C17.9679 15.8793 18.0787 16.0145 18.213 16.1787L18.9869 15.5454ZM19.3061 15.982C19.2303 15.8391 19.1172 15.7047 18.9869 15.5454L18.213 16.1787C18.373 16.3742 18.4049 16.4171 18.4225 16.4502L19.3061 15.982ZM19.2296 17.515C19.5344 17.0567 19.5638 16.4683 19.3061 15.982L18.4224 16.4502C18.5083 16.6123 18.4986 16.8084 18.397 16.9612L19.2296 17.515ZM18.8686 17.9176C19.0141 17.7722 19.14 17.6497 19.2296 17.515L18.397 16.9612C18.3763 16.9923 18.3402 17.0319 18.1615 17.2105L18.8686 17.9176ZM18.118 18.6682L18.8686 17.9176L18.1615 17.2105L17.4109 17.9611L18.118 18.6682ZM18.118 18.6682L18.118 18.6682L17.4109 17.9611L17.4109 17.9611L18.118 18.6682ZM17.7152 19.0294C17.8499 18.9398 17.9725 18.8138 18.118 18.6682L17.4109 17.9611C17.2322 18.1398 17.1926 18.176 17.1615 18.1967L17.7152 19.0294ZM16.1824 19.1058C16.6687 19.3634 17.257 19.3341 17.7152 19.0294L17.1615 18.1967C17.0087 18.2982 16.8126 18.308 16.6505 18.2222L16.1824 19.1058ZM15.7457 18.7866C15.905 18.9169 16.0394 19.0301 16.1824 19.1058L16.6505 18.2222C16.6175 18.2046 16.5745 18.1726 16.3789 18.0126L15.7457 18.7866ZM15.7849 18.8156L15.7849 18.8156L16.3396 17.9836L16.3396 17.9835L15.7849 18.8156ZM15.2318 18.3933C15.2398 18.3966 15.275 18.414 15.3679 18.4837C15.4584 18.5516 15.5746 18.6466 15.7457 18.7865L16.3789 18.0126C16.2147 17.8782 16.0794 17.7674 15.9683 17.684C15.8597 17.6025 15.7434 17.5231 15.6162 17.4701L15.2318 18.3933ZM14.5772 18.6644C14.6827 18.4084 14.9761 18.2868 15.2318 18.3933L15.6162 17.4701C14.8494 17.1508 13.9691 17.5154 13.6526 18.2834L14.5772 18.6644ZM14.4919 19.306C14.5139 19.086 14.529 18.9366 14.5449 18.8247C14.5613 18.7096 14.5739 18.6725 14.5772 18.6644L13.6526 18.2834C13.6001 18.4109 13.574 18.5493 13.5549 18.6837C13.5353 18.8213 13.518 18.9953 13.4969 19.2065L14.4919 19.306ZM14.4088 19.841C14.4564 19.6863 14.4714 19.511 14.4919 19.306L13.4969 19.2065C13.4717 19.4582 13.464 19.5113 13.4529 19.5471L14.4088 19.841ZM13.2711 20.8706C13.8104 20.762 14.2471 20.3669 14.4088 19.841L13.4529 19.5471C13.399 19.7224 13.2535 19.8541 13.0737 19.8903L13.2711 20.8706ZM12.7306 20.9001C12.9365 20.9001 13.1124 20.9025 13.2711 20.8706L13.0737 19.8903C13.037 19.8977 12.9835 19.9001 12.7306 19.9001V20.9001ZM11.6693 20.9001H12.7306V19.9001H11.6693V20.9001ZM11.1291 20.8706C11.2877 20.9025 11.4635 20.9001 11.6693 20.9001V19.9001C11.4166 19.9001 11.3631 19.8977 11.3264 19.8903L11.1291 20.8706ZM9.99124 19.8409C10.1529 20.3668 10.5896 20.7621 11.1291 20.8706L11.3264 19.8903C11.1466 19.8541 11.001 19.7223 10.9471 19.547L9.99124 19.8409ZM9.90815 19.3062C9.92863 19.511 9.94368 19.6862 9.99124 19.8409L10.9471 19.547C10.9361 19.5113 10.9283 19.4582 10.9032 19.2067L9.90815 19.3062ZM9.82285 18.6647C9.82619 18.6728 9.8388 18.71 9.85518 18.825C9.87111 18.9369 9.88615 19.0863 9.90815 19.3062L10.9032 19.2067C10.8821 18.9956 10.8648 18.8216 10.8452 18.6841C10.826 18.5496 10.8 18.4112 10.7474 18.2838L9.82285 18.6647ZM9.16834 18.3936C9.42394 18.2872 9.71737 18.4087 9.82285 18.6647L10.7474 18.2838C10.431 17.5158 9.55072 17.1512 8.78392 17.4705L9.16834 18.3936ZM8.6544 18.7869C8.82548 18.647 8.94172 18.552 9.03213 18.4841C9.12505 18.4144 9.16024 18.397 9.16834 18.3936L8.78392 17.4705C8.65667 17.5235 8.54035 17.6029 8.43177 17.6844C8.32067 17.7678 8.18542 17.8786 8.02116 18.013L8.6544 18.7869ZM8.21757 19.1063C8.36057 19.0305 8.49508 18.9173 8.6544 18.7869L8.02116 18.013C7.82551 18.1731 7.78254 18.2051 7.74947 18.2226L8.21757 19.1063ZM6.68487 19.0298C7.14308 19.3345 7.73132 19.3638 8.21757 19.1063L7.74947 18.2226C7.58739 18.3084 7.39131 18.2987 7.23857 18.1971L6.68487 19.0298ZM6.28199 18.6686C6.42754 18.8142 6.55011 18.9402 6.68487 19.0298L7.23857 18.1971C7.20741 18.1764 7.16784 18.1403 6.9891 17.9615L6.28199 18.6686ZM5.53152 17.9182L6.28199 18.6686L6.9891 17.9615L6.23862 17.211L5.53152 17.9182ZM5.1703 17.5152C5.25991 17.65 5.38595 17.7726 5.53152 17.9182L6.23862 17.211C6.05987 17.0323 6.02375 16.9927 6.00303 16.9615L5.1703 17.5152ZM5.09386 15.9826C4.83631 16.4688 4.86564 17.057 5.1703 17.5152L6.00303 16.9615C5.90147 16.8088 5.8917 16.6127 5.97755 16.4507L5.09386 15.9826ZM5.4132 15.5457C5.28284 15.705 5.16962 15.8396 5.09386 15.9826L5.97755 16.4507C5.99507 16.4176 6.02707 16.3746 6.18716 16.179L5.4132 15.5457ZM5.4239 15.5331L5.42389 15.5331L6.17647 16.1916L6.17648 16.1916L5.4239 15.5331ZM5.80653 15.0317C5.80316 15.0398 5.7858 15.075 5.71604 15.168C5.64817 15.2584 5.55319 15.3746 5.41321 15.5457L6.18717 16.1789C6.32156 16.0147 6.43237 15.8794 6.51577 15.7683C6.59729 15.6597 6.67671 15.5434 6.7297 15.4161L5.80653 15.0317ZM5.53543 14.3772C5.79142 14.4827 5.91296 14.7761 5.80653 15.0317L6.7297 15.4161C7.04899 14.6494 6.68437 13.7691 5.91639 13.4527L5.53543 14.3772ZM4.89389 14.2919C5.11385 14.3139 5.26321 14.329 5.37513 14.3449C5.49016 14.3613 5.52732 14.3739 5.53543 14.3772L5.91639 13.4527C5.78894 13.4001 5.65054 13.374 5.5161 13.3549C5.37857 13.3353 5.20458 13.318 4.99339 13.2969L4.89389 14.2919ZM4.35923 14.2088C4.51391 14.2564 4.68907 14.2715 4.89389 14.2919L4.99339 13.2969C4.74187 13.2717 4.68886 13.264 4.65309 13.253L4.35923 14.2088ZM3.3295 13.071C3.43806 13.6104 3.83327 14.0471 4.35922 14.2088L4.65309 13.253C4.47777 13.1991 4.34603 13.0535 4.30985 12.8737L3.3295 13.071ZM3.30002 12.5307C3.30002 12.7366 3.29757 12.9124 3.3295 13.071L4.30985 12.8737C4.30246 12.837 4.30002 12.7835 4.30002 12.5307H3.30002ZM3.30002 11.4695L3.30002 12.5307L4.30002 12.5307L4.30002 11.4695H3.30002ZM3.32952 10.929C3.29757 11.0877 3.30002 11.2636 3.30002 11.4695H4.30002C4.30002 11.2166 4.30246 11.1631 4.30985 11.1264L3.32952 10.929ZM4.35914 9.7913C3.83325 9.95301 3.4381 10.3896 3.32952 10.929L4.30985 11.1264C4.34605 10.9466 4.47776 10.801 4.65306 10.7471L4.35914 9.7913ZM4.89397 9.70817C4.68908 9.72866 4.51386 9.74372 4.35913 9.7913L4.65306 10.7471C4.68884 10.7361 4.74187 10.7284 4.99347 10.7032L4.89397 9.70817ZM5.5357 9.62283C5.52759 9.62617 5.49042 9.63879 5.37536 9.65518C5.2634 9.67112 5.11399 9.68617 4.89397 9.70817L4.99347 10.7032C5.20472 10.6821 5.37876 10.6648 5.51634 10.6452C5.65082 10.626 5.78926 10.5999 5.91675 10.5474L5.5357 9.62283ZM5.80678 8.96839C5.91318 9.22397 5.79165 9.51734 5.53571 9.62283L5.91675 10.5474C6.6846 10.2309 7.04916 9.35079 6.72998 8.58407L5.80678 8.96839ZM5.41331 8.45423C5.55334 8.62538 5.64836 8.74168 5.71626 8.83213C5.78605 8.92509 5.80341 8.9603 5.80678 8.96839L6.72998 8.58407C6.67699 8.45677 6.59755 8.3404 6.516 8.23177C6.43256 8.12063 6.32172 7.98532 6.18727 7.82099L5.41331 8.45423ZM5.40029 8.4376L5.40029 8.43761L6.20029 7.83761L6.20028 7.8376L5.40029 8.4376ZM5.09384 8.01716C5.16961 8.16024 5.28289 8.29482 5.41331 8.45422L6.18726 7.82099C6.0271 7.62524 5.99509 7.58224 5.97756 7.54915L5.09384 8.01716ZM5.17027 6.48472C4.8657 6.94286 4.83637 7.53098 5.09384 8.01716L5.97756 7.54915C5.89174 7.38709 5.90152 7.19105 6.00304 7.03834L5.17027 6.48472ZM5.53162 6.08163C5.386 6.22725 5.25991 6.34988 5.17027 6.48472L6.00304 7.03834C6.02377 7.00716 6.0599 6.96756 6.23873 6.78873L5.53162 6.08163ZM6.28202 5.33123L5.53162 6.08163L6.23873 6.78873L6.98913 6.03833L6.28202 5.33123ZM6.68491 4.97004C6.55015 5.05964 6.42758 5.18567 6.28202 5.33123L6.98913 6.03833C7.16787 5.85959 7.20744 5.82348 7.23861 5.80276L6.68491 4.97004ZM8.2176 4.8936C7.73135 4.63603 7.14311 4.66536 6.68491 4.97004L7.23861 5.80276C7.39134 5.7012 7.58742 5.69142 7.74951 5.77727L8.2176 4.8936ZM8.65449 5.21296C8.49514 5.08258 8.36061 4.96935 8.2176 4.8936L7.74951 5.77727C7.78257 5.79479 7.82556 5.82681 8.02125 5.98691L8.65449 5.21296ZM9.16831 5.60619C9.16023 5.60282 9.12504 5.58546 9.03215 5.51572C8.94176 5.44786 8.82553 5.3529 8.65449 5.21296L8.02125 5.98691C8.18547 6.12128 8.32069 6.23205 8.43176 6.31543C8.5403 6.39692 8.65657 6.47631 8.78377 6.5293L9.16831 5.60619ZM9.82291 5.33505C9.71745 5.59111 9.42395 5.71268 9.16831 5.60619L8.78377 6.5293C9.55067 6.84877 10.4312 6.48406 10.7476 5.71587L9.82291 5.33505ZM9.90816 4.69384C9.88617 4.91368 9.87114 5.06296 9.85521 5.17483C9.83885 5.2898 9.82625 5.32694 9.82291 5.33505L10.7476 5.71587C10.8 5.58847 10.8261 5.45014 10.8452 5.31578C10.8648 5.17832 10.8821 5.00442 10.9032 4.79334L9.90816 4.69384ZM9.91248 4.66139L9.91248 4.66139L10.8989 4.82579L10.8989 4.82578L9.91248 4.66139ZM9.99119 4.15946C9.94368 4.31406 9.92863 4.48912 9.90816 4.69383L10.9032 4.79334C10.9283 4.54195 10.9361 4.48897 10.9471 4.45321L9.99119 4.15946ZM11.1292 3.12955C10.5897 3.23808 10.1529 3.63337 9.99119 4.15945L10.9471 4.45322C11.001 4.27786 11.1466 4.14609 11.3264 4.10992L11.1292 3.12955ZM11.6692 3.1001C11.4635 3.1001 11.2878 3.09766 11.1292 3.12955L11.3264 4.10992C11.3631 4.10254 11.4166 4.1001 11.6692 4.1001V3.1001ZM12.7307 3.1001H11.6692V4.1001H12.7307V3.1001ZM13.271 3.12958C13.1123 3.09765 12.9365 3.1001 12.7307 3.1001V4.1001C12.9835 4.1001 13.037 4.10254 13.0737 4.10992L13.271 3.12958ZM14.4088 4.15931C14.2471 3.63335 13.8104 3.23814 13.271 3.12958L13.0737 4.10992C13.2535 4.14611 13.3991 4.27785 13.453 4.45317L14.4088 4.15931ZM14.4919 4.69393C14.4714 4.48914 14.4564 4.31399 14.4088 4.15931L13.453 4.45317C13.464 4.48894 13.4717 4.54194 13.4969 4.79345L14.4919 4.69393ZM15.06 12.0001C15.06 13.5796 13.7796 14.8601 12.2 14.8601V15.8601C14.3319 15.8601 16.06 14.1319 16.06 12.0001H15.06ZM12.2 9.14006C13.7796 9.14006 15.06 10.4205 15.06 12.0001H16.06C16.06 9.86825 14.3319 8.14006 12.2 8.14006V9.14006ZM9.34003 12.0001C9.34003 10.4205 10.6205 9.14006 12.2 9.14006V8.14006C10.0682 8.14006 8.34003 9.86824 8.34003 12.0001H9.34003ZM12.2 14.8601C10.6205 14.8601 9.34003 13.5796 9.34003 12.0001H8.34003C8.34003 14.1319 10.0682 15.8601 12.2 15.8601V14.8601Z" fill="currentColor"/>
</svg>
